<svg width="140" height="140" viewBox="0 0 140 140" fill="none" xmlns="http://www.w3.org/2000/svg">
<g filter="url(#filter0_dd)">
<rect x="20" y="10" width="100" height="100" rx="50" fill="white"/>
<rect x="22" y="12" width="96" height="96" rx="48" stroke="#B8E0FD" stroke-width="4"/>
</g>
<path d="M60.9332 63.3112C60.0635 62.4416 59.6481 61.1955 59.822 59.9779C59.9772 58.8921 59.852 57.7765 59.4602 56.752L58.7207 54.8185C58.9347 54.722 59.0839 54.5072 59.0839 54.2572V52.7793C59.0839 51.8965 58.3657 51.1782 57.4828 51.1782H55.0945C54.2117 51.1782 53.4935 51.8965 53.4935 52.7793V54.2572C53.4935 54.5069 53.6423 54.7214 53.8558 54.818L53.1162 56.752C52.7243 57.7765 52.5991 58.8921 52.7543 59.9779C52.9282 61.1955 52.5128 62.4416 51.6431 63.3112C50.6686 64.2859 50.1318 65.5816 50.1318 66.9599V79.6284C50.1318 81.3262 51.5131 82.7074 53.2109 82.7074H59.3654C61.0632 82.7074 62.4444 81.3262 62.4444 79.6284V66.9599C62.4445 65.5816 61.9078 64.2859 60.9332 63.3112ZM53.9258 59.2758C53.8974 58.5674 54.0125 57.8561 54.2665 57.192L55.1534 54.873H57.4229L58.3098 57.192C58.5639 57.8565 58.679 58.5682 58.6504 59.277L56.2886 59.9779L53.9258 59.2758ZM54.7251 52.7793C54.7251 52.5755 54.8908 52.4098 55.0945 52.4098H57.4828C57.6866 52.4098 57.8523 52.5755 57.8523 52.7793V53.6414H57.8467H54.7296H54.7251V52.7793Z" fill="url(#paint0_linear)"/>
<path d="M84.4414 54.0266C83.0109 52.5961 82.3276 50.5465 82.6137 48.5438C82.8689 46.7577 82.663 44.9229 82.0185 43.2376L80.8021 40.0573C81.1541 39.8986 81.3996 39.5454 81.3996 39.1341V36.7031C81.3996 35.251 80.2183 34.0696 78.7661 34.0696H74.8377C73.3855 34.0696 72.2042 35.251 72.2042 36.7031V39.1341C72.2042 39.5447 72.449 39.8975 72.8002 40.0566L71.5836 43.2376C70.939 44.9229 70.7331 46.7577 70.9884 48.5438C71.2744 50.5465 70.5912 52.5961 69.1607 54.0266C67.5577 55.6297 66.6748 57.7611 66.6748 60.028V80.8658C66.6748 83.6584 68.9468 85.9304 71.7393 85.9304H81.8626C84.6552 85.9304 86.9272 83.6584 86.9272 80.8658V60.028C86.9273 57.7611 86.0444 55.6297 84.4414 54.0266ZM72.9153 47.389C72.8685 46.2237 73.0579 45.0537 73.4757 43.9613L74.9344 40.147H78.6675L80.1263 43.9613C80.5442 45.0543 80.7336 46.225 80.6865 47.3908L76.8017 49.1193L72.9153 47.389ZM74.23 36.7031C74.23 36.368 74.5025 36.0954 74.8377 36.0954H78.7661C79.1012 36.0954 79.3738 36.368 79.3738 36.7031V38.1212H79.3646H74.2374H74.23V36.7031Z" fill="#0795FF"/>
<path d="M81.8627 83.8512C83.5382 83.8512 84.9014 82.488 84.9014 80.8124V77.769H68.7007V80.8124C68.7007 82.488 70.0639 83.8512 71.7394 83.8512H81.8627Z" fill="#156CDD"/>
<defs>
<filter id="filter0_dd" x="0" y="0" width="140" height="140" filterUnits="userSpaceOnUse" color-interpolation-filters="sRGB">
<feFlood flood-opacity="0" result="BackgroundImageFix"/>
<feColorMatrix in="SourceAlpha" type="matrix" values="0 0 0 0 0 0 0 0 0 0 0 0 0 0 0 0 0 0 127 0"/>
<feOffset dy="10"/>
<feGaussianBlur stdDeviation="10"/>
<feColorMatrix type="matrix" values="0 0 0 0 0 0 0 0 0 0 0 0 0 0 0 0 0 0 0.1 0"/>
<feBlend mode="normal" in2="BackgroundImageFix" result="effect1_dropShadow"/>
<feColorMatrix in="SourceAlpha" type="matrix" values="0 0 0 0 0 0 0 0 0 0 0 0 0 0 0 0 0 0 127 0"/>
<feMorphology radius="1" operator="dilate" in="SourceAlpha" result="effect2_dropShadow"/>
<feOffset dy="2"/>
<feGaussianBlur stdDeviation="1"/>
<feColorMatrix type="matrix" values="0 0 0 0 0 0 0 0 0 0 0 0 0 0 0 0 0 0 0.1 0"/>
<feBlend mode="normal" in2="effect1_dropShadow" result="effect2_dropShadow"/>
<feBlend mode="normal" in="SourceGraphic" in2="effect2_dropShadow" result="shape"/>
</filter>
<linearGradient id="paint0_linear" x1="56.2881" y1="51.1782" x2="56.2881" y2="82.7074" gradientUnits="userSpaceOnUse">
<stop stop-color="#FFDD00"/>
<stop offset="1" stop-color="#FE8906"/>
</linearGradient>
</defs>
</svg>
