<svg width="140" height="140" viewBox="0 0 140 140" fill="none" xmlns="http://www.w3.org/2000/svg">
<g filter="url(#filter0_dd)">
<circle cx="70" cy="60" r="50" fill="white"/>
<circle cx="70" cy="60" r="48" stroke="#B8E0FD" stroke-width="4"/>
</g>
<path d="M59.9704 79.6536C61.5084 80.7898 62.9404 81.9365 64.2132 83.0621C65.9102 84.5267 68.0838 85.3333 70.3333 85.3333C72.5828 85.3333 74.7565 84.5267 76.4535 83.0621C77.7687 81.9365 79.2007 80.7898 80.6962 79.6536C82.6903 78.1808 84.6632 76.8763 86.53 75.7611C87.7838 75.0273 88.8242 73.9833 89.5493 72.7312C90.2744 71.4792 90.6594 70.0618 90.6667 68.6179V41.7389C90.6671 41.1853 90.4833 40.6471 90.1439 40.2077C89.8044 39.7683 89.3283 39.4523 88.7893 39.3087L72.7305 34.9744C71.1879 34.5641 69.5636 34.5641 68.021 34.9744L51.8774 39.3087C51.3376 39.4544 50.8611 39.7724 50.5218 40.2136C50.1824 40.6547 49.999 41.1945 50 41.7494V68.6074C50.0065 70.0529 50.3911 71.472 51.1162 72.7259C51.8413 73.9798 52.882 75.0256 54.1367 75.7611C56.0035 76.8342 57.9764 78.1808 59.9704 79.6536Z" fill="#0795FF"/>
<path d="M88.8037 39.3182L72.6832 34.9743C71.1438 34.5641 69.5229 34.5641 67.9835 34.9743L51.8735 39.3077C51.3348 39.4533 50.8593 39.7712 50.5207 40.2123C50.182 40.6534 49.999 41.193 50 41.7478V68.5996C50.0065 70.0448 50.3903 71.4635 51.1139 72.7171C51.8374 73.9708 52.876 75.0164 54.1281 75.7517C55.991 76.8666 57.9597 78.1708 59.9497 79.6432C61.4845 80.7792 62.924 81.9256 64.1836 83.0615C65.8726 84.5263 68.0386 85.3333 70.2804 85.3333C72.5223 85.3333 74.6882 84.5263 76.3772 83.0615C77.6897 81.9256 79.1293 80.7792 80.6641 79.6432C82.5568 78.2523 84.5211 76.9604 86.5492 75.7727C87.7992 75.0386 88.8358 73.9944 89.5576 72.7425C90.2793 71.4906 90.6615 70.0739 90.6667 68.6311V41.7373C90.6672 41.1866 90.4849 40.6511 90.1481 40.2137C89.8113 39.7764 89.3388 39.4616 88.8037 39.3182ZM85.9035 68.6101C85.8977 69.2358 85.7276 69.8492 85.4102 70.3897C85.0928 70.9301 84.6389 71.379 84.0935 71.6918C81.9488 72.989 79.8716 74.3932 77.8697 75.8989C76.2714 77.0769 74.6943 78.3075 73.3077 79.5381C72.482 80.2492 71.426 80.6407 70.3333 80.6407C69.2407 80.6407 68.1847 80.2492 67.359 79.5381C65.9301 78.3075 64.3953 77.0769 62.797 75.8989C60.7951 74.3932 58.7178 72.989 56.5731 71.6918C56.0262 71.3781 55.5714 70.9276 55.2539 70.3851C54.9364 69.8427 54.7672 69.2271 54.7631 68.5996V44.5034C54.7651 44.1944 54.87 43.8946 55.0615 43.6511C55.253 43.4075 55.5203 43.2338 55.8216 43.1572L69.2749 39.5496C69.995 39.3499 70.7564 39.3499 71.4765 39.5496L84.8662 43.1677C85.1675 43.2444 85.4348 43.418 85.6263 43.6616C85.8178 43.9052 85.9227 44.2049 85.9247 44.5139L85.9035 68.6101Z" fill="url(#paint0_linear)"/>
<path fill-rule="evenodd" clip-rule="evenodd" d="M66.6545 50H74.0117C74.3733 50 74.6664 50.2792 74.6664 50.6236V54.6667H78.7094C79.0538 54.6667 79.333 54.9598 79.333 55.3214V62.6786C79.333 63.0402 79.0538 63.3333 78.7094 63.3333H74.6664V67.3764C74.6664 67.7208 74.3733 68 74.0117 68H66.6545C66.2929 68 65.9998 67.7208 65.9998 67.3764V63.3333H61.9566C61.6122 63.3333 61.333 63.0402 61.333 62.6786V55.3214C61.333 54.9598 61.6122 54.6667 61.9566 54.6667H65.9998V50.6236C65.9998 50.2792 66.2929 50 66.6545 50Z" fill="white"/>
<defs>
<filter id="filter0_dd" x="0" y="0" width="140" height="140" filterUnits="userSpaceOnUse" color-interpolation-filters="sRGB">
<feFlood flood-opacity="0" result="BackgroundImageFix"/>
<feColorMatrix in="SourceAlpha" type="matrix" values="0 0 0 0 0 0 0 0 0 0 0 0 0 0 0 0 0 0 127 0"/>
<feOffset dy="10"/>
<feGaussianBlur stdDeviation="10"/>
<feColorMatrix type="matrix" values="0 0 0 0 0 0 0 0 0 0 0 0 0 0 0 0 0 0 0.1 0"/>
<feBlend mode="normal" in2="BackgroundImageFix" result="effect1_dropShadow"/>
<feColorMatrix in="SourceAlpha" type="matrix" values="0 0 0 0 0 0 0 0 0 0 0 0 0 0 0 0 0 0 127 0"/>
<feMorphology radius="1" operator="dilate" in="SourceAlpha" result="effect2_dropShadow"/>
<feOffset dy="2"/>
<feGaussianBlur stdDeviation="1"/>
<feColorMatrix type="matrix" values="0 0 0 0 0 0 0 0 0 0 0 0 0 0 0 0 0 0 0.1 0"/>
<feBlend mode="normal" in2="effect1_dropShadow" result="effect2_dropShadow"/>
<feBlend mode="normal" in="SourceGraphic" in2="effect2_dropShadow" result="shape"/>
</filter>
<linearGradient id="paint0_linear" x1="70.3333" y1="34.6667" x2="70.3333" y2="85.3333" gradientUnits="userSpaceOnUse">
<stop stop-color="#FFDD00"/>
<stop offset="1" stop-color="#FE8906"/>
</linearGradient>
</defs>
</svg>
